<svg xmlns="http://www.w3.org/2000/svg" viewBox="0 0 120 120" fill="none">
  <!-- Stylized "S" made of motion/data lines -->
  <path d="M72 20C54 20 38 28 38 42C38 56 58 58 68 62C78 66 82 72 82 80C82 92 68 100 50 100" stroke="#F97316" stroke-width="7" stroke-linecap="round" fill="none"/>
  <!-- Motion lines / data points trailing the S -->
  <circle cx="28" cy="38" r="3" fill="#F97316" opacity="0.5"/>
  <circle cx="22" cy="50" r="2.5" fill="#F97316" opacity="0.35"/>
  <circle cx="26" cy="62" r="2" fill="#F97316" opacity="0.25"/>
  <!-- Motion streaks -->
  <line x1="20" y1="42" x2="34" y2="42" stroke="#F97316" stroke-width="2.5" stroke-linecap="round" opacity="0.4"/>
  <line x1="16" y1="54" x2="28" y2="54" stroke="#F97316" stroke-width="2" stroke-linecap="round" opacity="0.3"/>
  <!-- AI sparkle top-right -->
  <g transform="translate(94, 22)">
    <path d="M0 -12 L3 -3 L12 0 L3 3 L0 12 L-3 3 L-12 0 L-3 -3Z" fill="#F97316"/>
  </g>
  <!-- Small sparkle bottom-left -->
  <g transform="translate(36, 106)">
    <path d="M0 -7 L1.8 -1.8 L7 0 L1.8 1.8 L0 7 L-1.8 1.8 L-7 0 L-1.8 -1.8Z" fill="#F97316" opacity="0.7"/>
  </g>
  <!-- Tiny sparkle accent -->
  <g transform="translate(100, 46)">
    <path d="M0 -5 L1.2 -1.2 L5 0 L1.2 1.2 L0 5 L-1.2 1.2 L-5 0 L-1.2 -1.2Z" fill="#F97316" opacity="0.45"/>
  </g>
</svg>
